<svg width="28" height="30" viewBox="0 0 28 30" fill="none" xmlns="http://www.w3.org/2000/svg">
<path d="M27.2924 4.92199C26.8687 4.49788 26.3661 4.28579 25.7858 4.28579H23.6432V2.67859C23.6432 1.94213 23.3807 1.3115 22.8562 0.786949C22.3314 0.262394 21.7011 0 20.9643 0H19.8931C19.1564 0 18.5259 0.262394 18.0013 0.787007C17.4766 1.3115 17.2143 1.94219 17.2143 2.67865V4.28585H10.7861V2.67865C10.7861 1.94219 10.5237 1.31156 9.99908 0.787007C9.47458 0.262394 8.84402 0 8.10726 0H7.03593C6.29934 0 5.66872 0.262394 5.1441 0.787007C4.61961 1.3115 4.35715 1.94219 4.35715 2.67865V4.28585H2.21449C1.634 4.28585 1.13184 4.49794 0.70773 4.92205C0.283618 5.3461 0.0715332 5.84849 0.0715332 6.42881V27.8574C0.0715332 28.4373 0.283618 28.9395 0.70773 29.3639C1.13178 29.7879 1.63394 30 2.21449 30H25.7854C26.3657 30 26.8684 29.7879 27.292 29.3639C27.7161 28.9397 27.9283 28.4372 27.9283 27.8574V6.42875C27.9282 5.84826 27.7163 5.3461 27.2924 4.92199ZM7.03575 27.8571H2.21449V23.0355H7.03575V27.8571ZM7.03575 21.9643H2.21449V16.6075H7.03575V21.9643ZM7.03575 15.5356H2.21449V10.7144H7.03575V15.5356ZM6.65931 7.8767C6.55324 7.77063 6.50029 7.64532 6.50029 7.50008V2.67883C6.50029 2.53376 6.55324 2.40811 6.65931 2.30221C6.76538 2.19614 6.89069 2.14319 7.03593 2.14319H8.10726C8.25232 2.14319 8.37798 2.19614 8.48387 2.30221C8.58995 2.40816 8.64301 2.53376 8.64301 2.67883V7.50008C8.64301 7.64538 8.58971 7.77068 8.48387 7.8767C8.37792 7.98277 8.2525 8.03572 8.10726 8.03572H7.03593C6.89086 8.03578 6.76538 7.98277 6.65931 7.8767ZM13.4643 27.8571H8.10708V23.0355H13.4643V27.8571ZM13.4643 21.9643H8.10708V16.6075H13.4643V21.9643ZM13.4643 15.5356H8.10708V10.7144H13.4643V15.5356ZM19.8931 27.8571H14.536V23.0355H19.8931V27.8571ZM19.8931 21.9643H14.536V16.6075H19.8931V21.9643ZM19.8931 15.5356H14.536V10.7144H19.8931V15.5356ZM19.5163 7.8767C19.4103 7.77063 19.3576 7.64532 19.3576 7.50008V2.67883C19.3576 2.53376 19.4103 2.40811 19.5163 2.30221C19.6223 2.19614 19.7478 2.14319 19.8931 2.14319H20.9643C21.1096 2.14319 21.235 2.19614 21.3412 2.30221C21.4472 2.40816 21.4999 2.53376 21.4999 2.67883V7.50008C21.4999 7.64538 21.4469 7.77068 21.3412 7.8767C21.2352 7.98277 21.1096 8.03572 20.9643 8.03572H19.8931C19.7479 8.03578 19.6219 7.98277 19.5163 7.8767ZM25.7854 27.8571H20.9639V23.0355H25.7854V27.8571ZM25.7854 21.9643H20.9639V16.6075H25.7854V21.9643ZM25.7854 15.5356H20.9639V10.7144H25.7854V15.5356Z" fill="#AFAFAF"/>
</svg>
