<svg width="45" height="46" viewBox="0 0 45 46" fill="none" xmlns="http://www.w3.org/2000/svg">
<path d="M22.8951 27.2513C35.103 27.2513 45.0001 31.993 45.0001 37.8422L45.0001 45.4072L0.790039 45.4072L0.790039 37.8422C0.790039 31.993 10.6872 27.2513 22.8951 27.2513ZM42.0528 37.8422C42.0528 33.6664 33.476 30.2773 22.8951 30.2773C12.3141 30.2773 3.73738 33.6664 3.73738 37.8422L3.73738 42.3812L42.0528 42.3812L42.0528 37.8422ZM22.8951 0.0175778C25.631 0.0175778 28.2548 1.1334 30.1894 3.11958C32.1239 5.10576 33.2108 7.7996 33.2108 10.6085C33.2108 13.4174 32.1239 16.1112 30.1894 18.0974C28.2548 20.0836 25.631 21.1994 22.8951 21.1994C20.1592 21.1994 17.5354 20.0836 15.6008 18.0974C13.6662 16.1112 12.5794 13.4174 12.5794 10.6085C12.5794 7.7996 13.6662 5.10576 15.6008 3.11958C17.5354 1.1334 20.1592 0.0175779 22.8951 0.0175778ZM22.8951 3.04355C20.9409 3.04355 19.0667 3.84057 17.6849 5.25927C16.303 6.67797 15.5267 8.60214 15.5267 10.6085C15.5267 12.6148 16.303 14.539 17.6849 15.9577C19.0667 17.3764 20.9409 18.1734 22.8951 18.1734C24.8493 18.1734 26.7235 17.3764 28.1053 15.9577C29.4871 14.539 30.2634 12.6148 30.2634 10.6085C30.2634 8.60214 29.4871 6.67797 28.1053 5.25927C26.7235 3.84057 24.8493 3.04355 22.8951 3.04355Z" fill="#02070D"/>
</svg>
