<svg width="38" height="36" viewBox="0 0 38 36" fill="none" xmlns="http://www.w3.org/2000/svg">
<path d="M27.4545 0.691406C24.1792 0.691406 21.0355 2.22331 18.9837 4.64408C16.9319 2.22331 13.7883 0.691406 10.5129 0.691406C4.71509 0.691406 0.159668 5.26819 0.159668 11.0932C0.159668 18.242 6.55985 24.067 16.2542 32.918L18.9837 35.3955L21.7132 32.8991C31.4076 24.067 37.8078 18.242 37.8078 11.0932C37.8078 5.26819 33.2524 0.691406 27.4545 0.691406ZM19.172 30.1001L18.9837 30.2892L18.7955 30.1001C9.83523 21.9489 3.92448 16.5589 3.92448 11.0932C3.92448 7.31072 6.74809 4.47387 10.5129 4.47387C13.4118 4.47387 16.2354 6.34619 17.2331 8.93718H20.7532C21.732 6.34619 24.5556 4.47387 27.4545 4.47387C31.2194 4.47387 34.043 7.31072 34.043 11.0932C34.043 16.5589 28.1322 21.9489 19.172 30.1001Z" fill="#02070D"/>
</svg>
